<svg xmlns="http://www.w3.org/2000/svg" xmlns:xlink="http://www.w3.org/1999/xlink" xmlns:lucid="lucid" width="1060" height="1363.33"><g transform="translate(-100 3.552713678800501e-15)" lucid:page-tab-id="43QRJ_VMKVUw"><path d="M0 0h1180.22v1380.44H0z" fill-opacity="0"/><path d="M500 325a5 5 0 0 1 5-5h190a5 5 0 0 1 5 5v310a5 5 0 0 1-5 5H505a5 5 0 0 1-5-5z" fill="#fff"/><path d="M500 395v36h200v-36M500 465v36h200v-36M500 535v36h200v-36M500 605v30a5 5 0 0 0 5 5h190a5 5 0 0 0 5-5v-30" fill="#e6e6e6"/><path d="M500 360v-35a5 5 0 0 1 5-5h190a5 5 0 0 1 5 5v35" fill="#54c45e"/><path d="M500 325a5 5 0 0 1 5-5h190a5 5 0 0 1 5 5v310a5 5 0 0 1-5 5H505a5 5 0 0 1-5-5zM500 360h200" stroke="#333" fill="none"/><use xlink:href="#a" transform="matrix(1,0,0,1,510,320) translate(11.2 25.15555555555556)"/><use xlink:href="#b" transform="matrix(1,0,0,1,505,362.5) translate(11.2 20.155555555555555)"/><use xlink:href="#c" transform="matrix(1,0,0,1,505,362.5) translate(34.85432098765432 20.155555555555555)"/><use xlink:href="#d" transform="matrix(1,0,0,1,505,397.5) translate(11.2 20.155555555555555)"/><use xlink:href="#e" transform="matrix(1,0,0,1,505,397.5) translate(97.07654320987656 20.155555555555555)"/><use xlink:href="#f" transform="matrix(1,0,0,1,505,432.5) translate(11.2 20.155555555555555)"/><use xlink:href="#e" transform="matrix(1,0,0,1,505,432.5) translate(102.06419753086423 20.155555555555555)"/><use xlink:href="#g" transform="matrix(1,0,0,1,505,467.5) translate(11.2 20.155555555555555)"/><use xlink:href="#e" transform="matrix(1,0,0,1,505,467.5) translate(96.08888888888892 20.155555555555555)"/><use xlink:href="#h" transform="matrix(1,0,0,1,505,502.5) translate(11.2 20.155555555555555)"/><use xlink:href="#i" transform="matrix(1,0,0,1,505,502.5) translate(99.99012345679013 20.155555555555555)"/><use xlink:href="#j" transform="matrix(1,0,0,1,505,537.5) translate(11.2 20.155555555555555)"/><use xlink:href="#i" transform="matrix(1,0,0,1,505,537.5) translate(63.397530864197535 20.155555555555555)"/><use xlink:href="#k" transform="matrix(1,0,0,1,505,572.5) translate(11.2 20.155555555555555)"/><use xlink:href="#i" transform="matrix(1,0,0,1,505,572.5) translate(97.02716049382717 20.155555555555555)"/><use xlink:href="#l" transform="matrix(1,0,0,1,505,607.5) translate(11.2 20.155555555555555)"/><use xlink:href="#m" transform="matrix(1,0,0,1,505,607.5) translate(48.681481481481484 20.155555555555555)"/><path d="M461.63 28a8 8 0 0 1 8-8H710.3a8 8 0 0 1 8 8v25.16a8 8 0 0 1-8 8H469.63a8 8 0 0 1-8-8z" stroke="#000" stroke-opacity="0" stroke-width="2" fill="#fff" fill-opacity="0"/><use xlink:href="#n" transform="matrix(1,0,0,1,465.62850191377726,23.999999999999996) translate(57.26493827160495 25.782777777777778)"/><use xlink:href="#o" transform="matrix(1,0,0,1,465.62850191377726,23.999999999999996) translate(119.83407407407408 25.782777777777778)"/><path d="M516.72 59.8h147.95M516.74 59.8h-1.02M664.65 59.8h1.02" stroke="#a9afb8" stroke-width="2" fill="none"/><path d="M461.63 69.16a8 8 0 0 1 8-8H710.6a8 8 0 0 1 8 8V72a8 8 0 0 1-8 8H469.62a8 8 0 0 1-8-8z" stroke="#000" stroke-opacity="0" stroke-width="2" fill="#fff" fill-opacity="0"/><use xlink:href="#p" transform="matrix(1,0,0,1,465.62850191377737,65.15522395689881) translate(76.46118312757203 14.917037037037037)"/><use xlink:href="#q" transform="matrix(1,0,0,1,465.62850191377737,65.15522395689881) translate(84.9591255144033 14.917037037037037)"/><use xlink:href="#r" transform="matrix(1,0,0,1,465.62850191377737,65.15522395689881) translate(119.67322016460906 14.917037037037037)"/><use xlink:href="#s" transform="matrix(1,0,0,1,465.62850191377737,65.15522395689881) translate(145.16704732510289 14.917037037037037)"/><path d="M880 185a5 5 0 0 1 5-5h190a5 5 0 0 1 5 5v170a5 5 0 0 1-5 5H885a5 5 0 0 1-5-5z" fill="#fff"/><path d="M880 255v36h200v-36M880 325v30a5 5 0 0 0 5 5h190a5 5 0 0 0 5-5v-30" fill="#e6e6e6"/><path d="M880 220v-35a5 5 0 0 1 5-5h190a5 5 0 0 1 5 5v35" fill="#54c45e"/><path d="M880 185a5 5 0 0 1 5-5h190a5 5 0 0 1 5 5v170a5 5 0 0 1-5 5H885a5 5 0 0 1-5-5zM880 220h200" stroke="#333" fill="none"/><use xlink:href="#t" transform="matrix(1,0,0,1,890,180) translate(11.2 25.15555555555556)"/><use xlink:href="#b" transform="matrix(1,0,0,1,885,222.5) translate(11.2 20.155555555555555)"/><use xlink:href="#c" transform="matrix(1,0,0,1,885,222.5) translate(34.85432098765432 20.155555555555555)"/><use xlink:href="#d" transform="matrix(1,0,0,1,885,257.5) translate(11.2 20.155555555555555)"/><use xlink:href="#e" transform="matrix(1,0,0,1,885,257.5) translate(97.07654320987656 20.155555555555555)"/><use xlink:href="#f" transform="matrix(1,0,0,1,885,292.5) translate(11.2 20.155555555555555)"/><use xlink:href="#e" transform="matrix(1,0,0,1,885,292.5) translate(102.06419753086423 20.155555555555555)"/><use xlink:href="#g" transform="matrix(1,0,0,1,885,327.5) translate(11.2 20.155555555555555)"/><use xlink:href="#e" transform="matrix(1,0,0,1,885,327.5) translate(96.08888888888892 20.155555555555555)"/><path d="M500 855.96a5 5 0 0 1 5-5h190a5 5 0 0 1 5 5v240a5 5 0 0 1-5 5H505a5 5 0 0 1-5-5z" fill="#fff"/><path d="M500 925.96v36h200v-36M500 995.96v36h200v-36M500 1065.95v30a5 5 0 0 0 5 5h190a5 5 0 0 0 5-5v-30" fill="#e6e6e6"/><path d="M500 890.96v-35a5 5 0 0 1 5-5h190a5 5 0 0 1 5 5v35" fill="#54c45e"/><path d="M500 855.96a5 5 0 0 1 5-5h190a5 5 0 0 1 5 5v240a5 5 0 0 1-5 5H505a5 5 0 0 1-5-5zM500 890.96h200" stroke="#333" fill="none"/><use xlink:href="#u" transform="matrix(1,0,0,1,510,850.9554968914083) translate(11.2 25.15555555555556)"/><use xlink:href="#b" transform="matrix(1,0,0,1,505,893.4554968914083) translate(11.2 20.155555555555555)"/><use xlink:href="#c" transform="matrix(1,0,0,1,505,893.4554968914083) translate(34.85432098765432 20.155555555555555)"/><use xlink:href="#d" transform="matrix(1,0,0,1,505,928.4554968914083) translate(11.2 20.155555555555555)"/><use xlink:href="#e" transform="matrix(1,0,0,1,505,928.4554968914083) translate(97.07654320987656 20.155555555555555)"/><use xlink:href="#f" transform="matrix(1,0,0,1,505,963.4554968914083) translate(11.2 20.155555555555555)"/><use xlink:href="#e" transform="matrix(1,0,0,1,505,963.4554968914083) translate(102.06419753086423 20.155555555555555)"/><use xlink:href="#g" transform="matrix(1,0,0,1,505,998.4554968914083) translate(11.2 20.155555555555555)"/><use xlink:href="#e" transform="matrix(1,0,0,1,505,998.4554968914083) translate(96.08888888888892 20.155555555555555)"/><use xlink:href="#v" transform="matrix(1,0,0,1,505,1033.4554968914083) translate(11.2 20.155555555555555)"/><use xlink:href="#i" transform="matrix(1,0,0,1,505,1033.4554968914083) translate(79.34814814814816 20.155555555555555)"/><use xlink:href="#w" transform="matrix(1,0,0,1,505,1068.4554968914083) translate(11.2 20.155555555555555)"/><use xlink:href="#i" transform="matrix(1,0,0,1,505,1068.4554968914083) translate(48.632098765432104 20.155555555555555)"/><path d="M220 1125a5 5 0 0 1 5-5h190a5 5 0 0 1 5 5v205a5 5 0 0 1-5 5H225a5 5 0 0 1-5-5z" fill="#fff"/><path d="M220 1195v36h200v-36M220 1265v36h200v-36" fill="#e6e6e6"/><path d="M220 1160v-35a5 5 0 0 1 5-5h190a5 5 0 0 1 5 5v35" fill="#54c45e"/><path d="M220 1125a5 5 0 0 1 5-5h190a5 5 0 0 1 5 5v205a5 5 0 0 1-5 5H225a5 5 0 0 1-5-5zM220 1160h200" stroke="#333" fill="none"/><use xlink:href="#x" transform="matrix(1,0,0,1,230,1120) translate(11.2 25.15555555555556)"/><use xlink:href="#b" transform="matrix(1,0,0,1,225,1162.5) translate(11.2 20.155555555555555)"/><use xlink:href="#c" transform="matrix(1,0,0,1,225,1162.5) translate(34.85432098765432 20.155555555555555)"/><use xlink:href="#d" transform="matrix(1,0,0,1,225,1197.5) translate(11.2 20.155555555555555)"/><use xlink:href="#e" transform="matrix(1,0,0,1,225,1197.5) translate(97.07654320987656 20.155555555555555)"/><use xlink:href="#f" transform="matrix(1,0,0,1,225,1232.5) translate(11.2 20.155555555555555)"/><use xlink:href="#e" transform="matrix(1,0,0,1,225,1232.5) translate(102.06419753086423 20.155555555555555)"/><use xlink:href="#g" transform="matrix(1,0,0,1,225,1267.5) translate(11.2 20.155555555555555)"/><use xlink:href="#e" transform="matrix(1,0,0,1,225,1267.5) translate(96.08888888888892 20.155555555555555)"/><use xlink:href="#v" transform="matrix(1,0,0,1,225,1302.5) translate(11.2 20.155555555555555)"/><use xlink:href="#i" transform="matrix(1,0,0,1,225,1302.5) translate(79.34814814814816 20.155555555555555)"/><path d="M880 855.96a5 5 0 0 1 5-5h190a5 5 0 0 1 5 5v170a5 5 0 0 1-5 5H885a5 5 0 0 1-5-5z" fill="#fff"/><path d="M880 925.96v36h200v-36M880 995.96v30a5 5 0 0 0 5 5h190a5 5 0 0 0 5-5v-30" fill="#e6e6e6"/><path d="M880 890.96v-35a5 5 0 0 1 5-5h190a5 5 0 0 1 5 5v35" fill="#54c45e"/><path d="M880 855.96a5 5 0 0 1 5-5h190a5 5 0 0 1 5 5v170a5 5 0 0 1-5 5H885a5 5 0 0 1-5-5zM880 890.96h200" stroke="#333" fill="none"/><use xlink:href="#y" transform="matrix(1,0,0,1,890,850.9554968914083) translate(11.2 25.15555555555556)"/><use xlink:href="#b" transform="matrix(1,0,0,1,885,893.4554968914083) translate(11.2 20.155555555555555)"/><use xlink:href="#c" transform="matrix(1,0,0,1,885,893.4554968914083) translate(34.85432098765432 20.155555555555555)"/><use xlink:href="#d" transform="matrix(1,0,0,1,885,928.4554968914083) translate(11.2 20.155555555555555)"/><use xlink:href="#e" transform="matrix(1,0,0,1,885,928.4554968914083) translate(97.07654320987656 20.155555555555555)"/><use xlink:href="#f" transform="matrix(1,0,0,1,885,963.4554968914083) translate(11.2 20.155555555555555)"/><use xlink:href="#e" transform="matrix(1,0,0,1,885,963.4554968914083) translate(102.06419753086423 20.155555555555555)"/><use xlink:href="#g" transform="matrix(1,0,0,1,885,998.4554968914083) translate(11.2 20.155555555555555)"/><use xlink:href="#e" transform="matrix(1,0,0,1,885,998.4554968914083) translate(96.08888888888892 20.155555555555555)"/><path d="M880 462.88a5 5 0 0 1 5-5h190a5 5 0 0 1 5 5v240a5 5 0 0 1-5 5H885a5 5 0 0 1-5-5z" fill="#fff"/><path d="M880 532.88v36h200v-36M880 602.88v36h200v-36M880 672.88v30a5 5 0 0 0 5 5h190a5 5 0 0 0 5-5v-30" fill="#e6e6e6"/><path d="M880 497.88v-35a5 5 0 0 1 5-5h190a5 5 0 0 1 5 5v35" fill="#54c45e"/><path d="M880 462.88a5 5 0 0 1 5-5h190a5 5 0 0 1 5 5v240a5 5 0 0 1-5 5H885a5 5 0 0 1-5-5zM880 497.88h200" stroke="#333" fill="none"/><use xlink:href="#z" transform="matrix(1,0,0,1,890,457.8808558952777) translate(11.2 25.15555555555556)"/><use xlink:href="#b" transform="matrix(1,0,0,1,885,500.3808558952777) translate(11.2 20.155555555555555)"/><use xlink:href="#c" transform="matrix(1,0,0,1,885,500.3808558952777) translate(34.85432098765432 20.155555555555555)"/><use xlink:href="#d" transform="matrix(1,0,0,1,885,535.3808558952777) translate(11.2 20.155555555555555)"/><use xlink:href="#e" transform="matrix(1,0,0,1,885,535.3808558952777) translate(97.07654320987656 20.155555555555555)"/><use xlink:href="#f" transform="matrix(1,0,0,1,885,570.3808558952777) translate(11.2 20.155555555555555)"/><use xlink:href="#e" transform="matrix(1,0,0,1,885,570.3808558952777) translate(102.06419753086423 20.155555555555555)"/><use xlink:href="#g" transform="matrix(1,0,0,1,885,605.3808558952777) translate(11.2 20.155555555555555)"/><use xlink:href="#e" transform="matrix(1,0,0,1,885,605.3808558952777) translate(96.08888888888892 20.155555555555555)"/><use xlink:href="#A" transform="matrix(1,0,0,1,885,640.3808558952777) translate(11.2 20.155555555555555)"/><use xlink:href="#i" transform="matrix(1,0,0,1,885,640.3808558952777) translate(93.12592592592596 20.155555555555555)"/><use xlink:href="#B" transform="matrix(1,0,0,1,885,675.3808558952777) translate(11.2 20.155555555555555)"/><use xlink:href="#C" transform="matrix(1,0,0,1,885,675.3808558952777) translate(56.582716049382725 20.155555555555555)"/><path d="M120 165a5 5 0 0 1 5-5h190a5 5 0 0 1 5 5v240a5 5 0 0 1-5 5H125a5 5 0 0 1-5-5z" fill="#fff"/><path d="M120 235v36h200v-36M120 305v36h200v-36M120 375v30a5 5 0 0 0 5 5h190a5 5 0 0 0 5-5v-30" fill="#e6e6e6"/><path d="M120 200v-35a5 5 0 0 1 5-5h190a5 5 0 0 1 5 5v35" fill="#54c45e"/><path d="M120 165a5 5 0 0 1 5-5h190a5 5 0 0 1 5 5v240a5 5 0 0 1-5 5H125a5 5 0 0 1-5-5zM120 200h200" stroke="#333" fill="none"/><use xlink:href="#D" transform="matrix(1,0,0,1,130,160) translate(11.2 25.15555555555556)"/><use xlink:href="#b" transform="matrix(1,0,0,1,125,202.5) translate(11.2 20.155555555555555)"/><use xlink:href="#c" transform="matrix(1,0,0,1,125,202.5) translate(34.85432098765432 20.155555555555555)"/><use xlink:href="#d" transform="matrix(1,0,0,1,125,237.5) translate(11.2 20.155555555555555)"/><use xlink:href="#e" transform="matrix(1,0,0,1,125,237.5) translate(97.07654320987656 20.155555555555555)"/><use xlink:href="#f" transform="matrix(1,0,0,1,125,272.5) translate(11.2 20.155555555555555)"/><use xlink:href="#e" transform="matrix(1,0,0,1,125,272.5) translate(102.06419753086423 20.155555555555555)"/><use xlink:href="#g" transform="matrix(1,0,0,1,125,307.5) translate(11.2 20.155555555555555)"/><use xlink:href="#e" transform="matrix(1,0,0,1,125,307.5) translate(96.08888888888892 20.155555555555555)"/><use xlink:href="#E" transform="matrix(1,0,0,1,125,342.5) translate(11.2 20.155555555555555)"/><use xlink:href="#F" transform="matrix(1,0,0,1,125,342.5) translate(87.99012345679013 20.155555555555555)"/><use xlink:href="#G" transform="matrix(1,0,0,1,125,377.5) translate(11.2 20.155555555555555)"/><use xlink:href="#F" transform="matrix(1,0,0,1,125,377.5) translate(91.99012345679016 20.155555555555555)"/><path d="M339.9 357.86h14.6a6 6 0 0 0 6-6V285.5a6 6 0 0 1 6-6h168.74a6 6 0 0 1 6 6v14" stroke="#3a414a" fill="none"/><path d="M320.72 347.86l20 10-20 10" stroke="#3a414a" fill="#fff" fill-opacity="0"/><path d="M320.72 357.86h20M551.24 299.5h-20M541.24 319.5v-20" stroke="#3a414a" fill="#fff"/><path d="M339.9 393.04H404a6 6 0 0 0 6-6V345.3a6 6 0 0 1 6-6h63.5" stroke="#3a414a" fill="none"/><path d="M320.72 383.04l20 10-20 10" stroke="#3a414a" fill="#fff" fill-opacity="0"/><path d="M320.72 393.04h20M479.5 329.3v20M499.5 339.3h-20" stroke="#3a414a" fill="#fff"/><path d="M600 300.1v-94.45a6 6 0 0 1 6-6h254.1" stroke="#3a414a" fill="none"/><path d="M590 319.28l10-20 10 20" stroke="#3a414a" fill="#fff" fill-opacity="0"/><path d="M600 319.28v-20" stroke="#3a414a" fill="#fff"/><path d="M879.28 209.65l-20-10 20-10" stroke="#3a414a" fill="#fff" fill-opacity="0"/><path d="M879.28 199.65h-20" stroke="#3a414a" fill="#fff"/><path d="M980 380.5v57.47" stroke="#3a414a" fill="none"/><path d="M970 380.5h20M980 360.5v20" stroke="#3a414a" fill="#fff"/><path d="M970 457.16l10-20 10 20" stroke="#3a414a" fill="#fff" fill-opacity="0"/><path d="M980 457.16v-20" stroke="#3a414a" fill="#fff"/><path d="M720.5 339.3H784a6 6 0 0 1 6 6v126.06a6 6 0 0 0 6 6h64.1" stroke="#3a414a" fill="none"/><path d="M720.5 349.3v-20M700.5 339.3h20" stroke="#3a414a" fill="#fff"/><path d="M879.28 487.36l-20-10 20-10" stroke="#3a414a" fill="#fff" fill-opacity="0"/><path d="M879.28 477.36h-20" stroke="#3a414a" fill="#fff"/><path d="M653.25 660.5V754a6 6 0 0 0 6 6H974a6 6 0 0 1 6 6v65.04" stroke="#3a414a" fill="none"/><path d="M643.25 660.5h20M653.25 640.5v20" stroke="#3a414a" fill="#fff"/><path d="M970 850.23l10-20 10 20" stroke="#3a414a" fill="#fff" fill-opacity="0"/><path d="M980 850.23v-20" stroke="#3a414a" fill="#fff"/><path d="M600 660.5v170.54" stroke="#3a414a" fill="none"/><path d="M590 660.5h20M600 640.5v20" stroke="#3a414a" fill="#fff"/><path d="M590 850.23l10-20 10 20" stroke="#3a414a" fill="#fff" fill-opacity="0"/><path d="M600 850.23v-20" stroke="#3a414a" fill="#fff"/><path d="M600 1121.45v12.1a6 6 0 0 1-6 6H439.9" stroke="#3a414a" fill="none"/><path d="M590 1121.45h20M600 1101.45v20" stroke="#3a414a" fill="#fff"/><path d="M420.72 1129.56l20 10-20 10" stroke="#3a414a" fill="#fff" fill-opacity="0"/><path d="M420.72 1139.56h20" stroke="#3a414a" fill="#fff"/><path d="M535.3 660.5V784a6 6 0 0 1-6 6H326a6 6 0 0 0-6 6v304.1" stroke="#3a414a" fill="none"/><path d="M525.3 660.5h20M535.3 640.5v20" stroke="#3a414a" fill="#fff"/><path d="M310 1119.28l10-20 10 20" stroke="#3a414a" fill="#fff" fill-opacity="0"/><path d="M320 1119.28v-20" stroke="#3a414a" fill="#fff"/><path d="M720.5 870.96h69.33a.17.17 0 0 0 .17-.18.17.17 0 0 1 .17-.17h69.92" stroke="#3a414a" fill="none"/><path d="M720.5 880.96v-20M700.5 870.96h20" stroke="#3a414a" fill="#fff"/><path d="M879.28 880.6l-20-10 20-10" stroke="#3a414a" fill="#fff" fill-opacity="0"/><path d="M879.28 870.6h-20" stroke="#3a414a" fill="#fff"/><path d="M900 1286a6 6 0 0 1 6-6h228a6 6 0 0 1 6 6v51.33a6 6 0 0 1-6 6H906a6 6 0 0 1-6-6z" stroke="#000" stroke-opacity="0" fill="#fff" fill-opacity="0"/><g><use xlink:href="#H" transform="matrix(1,0,0,1,905,1285) translate(9.598765432098759 21.15277777777778)"/><use xlink:href="#I" transform="matrix(1,0,0,1,905,1285) translate(90.89506172839505 21.15277777777778)"/><use xlink:href="#J" transform="matrix(1,0,0,1,905,1285) translate(142.7469135802469 21.15277777777778)"/><use xlink:href="#K" transform="matrix(1,0,0,1,905,1285) translate(185.95679012345678 21.15277777777778)"/><use xlink:href="#L" transform="matrix(1,0,0,1,905,1285) translate(28.148148148148152 47.81944444444444)"/><use xlink:href="#M" transform="matrix(1,0,0,1,905,1285) translate(93.51851851851852 47.81944444444444)"/><use xlink:href="#N" transform="matrix(1,0,0,1,905,1285) translate(131.7283950617284 47.81944444444444)"/></g><defs><path fill="#333" d="M238-95c0 69-44 99-111 99C63 4 22-25 22-93v-155h51v151c-1 38 19 59 55 60 90 1 49-130 58-211h52v153" id="O"/><path fill="#333" d="M137-138c1-29-70-34-71-4 15 46 118 7 119 86 1 83-164 76-172 9l43-7c4 19 20 25 44 25 33 8 57-30 24-41C81-84 22-81 20-136c-2-80 154-74 161-7" id="P"/><path fill="#333" d="M185-48c-13 30-37 53-82 52C43 2 14-33 14-96s30-98 90-98c62 0 83 45 84 108H66c0 31 8 55 39 56 18 0 30-7 34-22zm-45-69c5-46-57-63-70-21-2 6-4 13-4 21h74" id="Q"/><path fill="#333" d="M135-150c-39-12-60 13-60 57V0H25l-1-190h47c2 13-1 29 3 40 6-28 27-53 61-41v41" id="R"/><g id="a"><use transform="matrix(0.04938271604938272,0,0,0.04938271604938272,0,0)" xlink:href="#O"/><use transform="matrix(0.04938271604938272,0,0,0.04938271604938272,12.790123456790125,0)" xlink:href="#P"/><use transform="matrix(0.04938271604938272,0,0,0.04938271604938272,22.66666666666667,0)" xlink:href="#Q"/><use transform="matrix(0.04938271604938272,0,0,0.04938271604938272,32.543209876543216,0)" xlink:href="#R"/></g><path fill="#333" d="M24-231v-30h32v30H24zM24 0v-190h32V0H24" id="S"/><path fill="#333" d="M85-194c31 0 48 13 60 33l-1-100h32l1 261h-30c-2-10 0-23-3-31C134-8 116 4 85 4 32 4 16-35 15-94c0-66 23-100 70-100zm9 24c-40 0-46 34-46 75 0 40 6 74 45 74 42 0 51-32 51-76 0-42-9-74-50-73" id="T"/><path fill="#333" d="M33-154v-36h34v36H33zM33 0v-36h34V0H33" id="U"/><g id="b"><use transform="matrix(0.04938271604938272,0,0,0.04938271604938272,0,0)" xlink:href="#S"/><use transform="matrix(0.04938271604938272,0,0,0.04938271604938272,3.901234567901235,0)" xlink:href="#T"/><use transform="matrix(0.04938271604938272,0,0,0.04938271604938272,13.777777777777779,0)" xlink:href="#U"/></g><path fill="#333" d="M84 4C-5 8 30-112 23-190h32v120c0 31 7 50 39 49 72-2 45-101 50-169h31l1 190h-30c-1-10 1-25-2-33-11 22-28 36-60 37" id="V"/><g id="c"><use transform="matrix(0.04938271604938272,0,0,0.04938271604938272,0,0)" xlink:href="#V"/><use transform="matrix(0.04938271604938272,0,0,0.04938271604938272,9.876543209876544,0)" xlink:href="#V"/><use transform="matrix(0.04938271604938272,0,0,0.04938271604938272,19.75308641975309,0)" xlink:href="#S"/><use transform="matrix(0.04938271604938272,0,0,0.04938271604938272,23.654320987654323,0)" xlink:href="#T"/></g><path fill="#333" d="M96-169c-40 0-48 33-48 73s9 75 48 75c24 0 41-14 43-38l32 2c-6 37-31 61-74 61-59 0-76-41-82-99-10-93 101-131 147-64 4 7 5 14 7 22l-32 3c-4-21-16-35-41-35" id="W"/><path fill="#333" d="M114-163C36-179 61-72 57 0H25l-1-190h30c1 12-1 29 2 39 6-27 23-49 58-41v29" id="X"/><path fill="#333" d="M100-194c63 0 86 42 84 106H49c0 40 14 67 53 68 26 1 43-12 49-29l28 8c-11 28-37 45-77 45C44 4 14-33 15-96c1-61 26-98 85-98zm52 81c6-60-76-77-97-28-3 7-6 17-6 28h103" id="Y"/><path fill="#333" d="M141-36C126-15 110 5 73 4 37 3 15-17 15-53c-1-64 63-63 125-63 3-35-9-54-41-54-24 1-41 7-42 31l-33-3c5-37 33-52 76-52 45 0 72 20 72 64v82c-1 20 7 32 28 27v20c-31 9-61-2-59-35zM48-53c0 20 12 33 32 33 41-3 63-29 60-74-43 2-92-5-92 41" id="Z"/><path fill="#333" d="M59-47c-2 24 18 29 38 22v24C64 9 27 4 27-40v-127H5v-23h24l9-43h21v43h35v23H59v120" id="aa"/><path fill="#333" d="M205 0l-28-72H64L36 0H1l101-248h38L239 0h-34zm-38-99l-47-123c-12 45-31 82-46 123h93" id="ab"/><g id="d"><use transform="matrix(0.04938271604938272,0,0,0.04938271604938272,0,0)" xlink:href="#W"/><use transform="matrix(0.04938271604938272,0,0,0.04938271604938272,8.88888888888889,0)" xlink:href="#X"/><use transform="matrix(0.04938271604938272,0,0,0.04938271604938272,14.765432098765434,0)" xlink:href="#Y"/><use transform="matrix(0.04938271604938272,0,0,0.04938271604938272,24.641975308641978,0)" xlink:href="#Z"/><use transform="matrix(0.04938271604938272,0,0,0.04938271604938272,34.51851851851852,0)" xlink:href="#aa"/><use transform="matrix(0.04938271604938272,0,0,0.04938271604938272,39.45679012345679,0)" xlink:href="#Y"/><use transform="matrix(0.04938271604938272,0,0,0.04938271604938272,49.333333333333336,0)" xlink:href="#T"/><use transform="matrix(0.04938271604938272,0,0,0.04938271604938272,59.20987654320988,0)" xlink:href="#ab"/><use transform="matrix(0.04938271604938272,0,0,0.04938271604938272,71.06172839506173,0)" xlink:href="#aa"/><use transform="matrix(0.04938271604938272,0,0,0.04938271604938272,76,0)" xlink:href="#U"/></g><path fill="#333" d="M30-248c118-7 216 8 213 122C240-48 200 0 122 0H30v-248zM63-27c89 8 146-16 146-99s-60-101-146-95v194" id="ac"/><g id="e"><use transform="matrix(0.04938271604938272,0,0,0.04938271604938272,0,0)" xlink:href="#ac"/><use transform="matrix(0.04938271604938272,0,0,0.04938271604938272,12.790123456790125,0)" xlink:href="#Z"/><use transform="matrix(0.04938271604938272,0,0,0.04938271604938272,22.66666666666667,0)" xlink:href="#aa"/><use transform="matrix(0.04938271604938272,0,0,0.04938271604938272,27.604938271604947,0)" xlink:href="#Y"/></g><path fill="#333" d="M115-194c55 1 70 41 70 98S169 2 115 4C84 4 66-9 55-30l1 105H24l-1-265h31l2 30c10-21 28-34 59-34zm-8 174c40 0 45-34 45-75s-6-73-45-74c-42 0-51 32-51 76 0 43 10 73 51 73" id="ad"/><g id="f"><use transform="matrix(0.04938271604938272,0,0,0.04938271604938272,0,0)" xlink:href="#V"/><use transform="matrix(0.04938271604938272,0,0,0.04938271604938272,9.876543209876544,0)" xlink:href="#ad"/><use transform="matrix(0.04938271604938272,0,0,0.04938271604938272,19.75308641975309,0)" xlink:href="#T"/><use transform="matrix(0.04938271604938272,0,0,0.04938271604938272,29.629629629629633,0)" xlink:href="#Z"/><use transform="matrix(0.04938271604938272,0,0,0.04938271604938272,39.50617283950618,0)" xlink:href="#aa"/><use transform="matrix(0.04938271604938272,0,0,0.04938271604938272,44.44444444444445,0)" xlink:href="#Y"/><use transform="matrix(0.04938271604938272,0,0,0.04938271604938272,54.320987654320994,0)" xlink:href="#T"/><use transform="matrix(0.04938271604938272,0,0,0.04938271604938272,64.19753086419755,0)" xlink:href="#ab"/><use transform="matrix(0.04938271604938272,0,0,0.04938271604938272,76.0493827160494,0)" xlink:href="#aa"/><use transform="matrix(0.04938271604938272,0,0,0.04938271604938272,80.98765432098767,0)" xlink:href="#U"/></g><path fill="#333" d="M24 0v-261h32V0H24" id="ae"/><g id="g"><use transform="matrix(0.04938271604938272,0,0,0.04938271604938272,0,0)" xlink:href="#T"/><use transform="matrix(0.04938271604938272,0,0,0.04938271604938272,9.876543209876544,0)" xlink:href="#Y"/><use transform="matrix(0.04938271604938272,0,0,0.04938271604938272,19.75308641975309,0)" xlink:href="#ae"/><use transform="matrix(0.04938271604938272,0,0,0.04938271604938272,23.654320987654323,0)" xlink:href="#Y"/><use transform="matrix(0.04938271604938272,0,0,0.04938271604938272,33.53086419753087,0)" xlink:href="#aa"/><use transform="matrix(0.04938271604938272,0,0,0.04938271604938272,38.46913580246914,0)" xlink:href="#Y"/><use transform="matrix(0.04938271604938272,0,0,0.04938271604938272,48.345679012345684,0)" xlink:href="#T"/><use transform="matrix(0.04938271604938272,0,0,0.04938271604938272,58.22222222222223,0)" xlink:href="#ab"/><use transform="matrix(0.04938271604938272,0,0,0.04938271604938272,70.07407407407408,0)" xlink:href="#aa"/><use transform="matrix(0.04938271604938272,0,0,0.04938271604938272,75.01234567901236,0)" xlink:href="#U"/></g><path fill="#333" d="M135-143c-3-34-86-38-87 0 15 53 115 12 119 90S17 21 10-45l28-5c4 36 97 45 98 0-10-56-113-15-118-90-4-57 82-63 122-42 12 7 21 19 24 35" id="af"/><path fill="#333" d="M117-194c89-4 53 116 60 194h-32v-121c0-31-8-49-39-48C34-167 62-67 57 0H25l-1-190h30c1 10-1 24 2 32 11-22 29-35 61-36" id="ag"/><path fill="#333" d="M210-169c-67 3-38 105-44 169h-31v-121c0-29-5-50-35-48C34-165 62-65 56 0H25l-1-190h30c1 10-1 24 2 32 10-44 99-50 107 0 11-21 27-35 58-36 85-2 47 119 55 194h-31v-121c0-29-5-49-35-48" id="ah"/><g id="h"><use transform="matrix(0.04938271604938272,0,0,0.04938271604938272,0,0)" xlink:href="#V"/><use transform="matrix(0.04938271604938272,0,0,0.04938271604938272,9.876543209876544,0)" xlink:href="#af"/><use transform="matrix(0.04938271604938272,0,0,0.04938271604938272,18.765432098765434,0)" xlink:href="#Y"/><use transform="matrix(0.04938271604938272,0,0,0.04938271604938272,28.641975308641978,0)" xlink:href="#X"/><use transform="matrix(0.04938271604938272,0,0,0.04938271604938272,34.51851851851852,0)" xlink:href="#ag"/><use transform="matrix(0.04938271604938272,0,0,0.04938271604938272,44.39506172839506,0)" xlink:href="#Z"/><use transform="matrix(0.04938271604938272,0,0,0.04938271604938272,54.27160493827161,0)" xlink:href="#ah"/><use transform="matrix(0.04938271604938272,0,0,0.04938271604938272,69.03703703703704,0)" xlink:href="#Y"/><use transform="matrix(0.04938271604938272,0,0,0.04938271604938272,78.91358024691358,0)" xlink:href="#U"/></g><path fill="#333" d="M185-189c-5-48-123-54-124 2 14 75 158 14 163 119 3 78-121 87-175 55-17-10-28-26-33-46l33-7c5 56 141 63 141-1 0-78-155-14-162-118-5-82 145-84 179-34 5 7 8 16 11 25" id="ai"/><path fill="#333" d="M177-190C167-65 218 103 67 71c-23-6-38-20-44-43l32-5c15 47 100 32 89-28v-30C133-14 115 1 83 1 29 1 15-40 15-95c0-56 16-97 71-98 29-1 48 16 59 35 1-10 0-23 2-32h30zM94-22c36 0 50-32 50-73 0-42-14-75-50-75-39 0-46 34-46 75s6 73 46 73" id="aj"/><g id="i"><use transform="matrix(0.04938271604938272,0,0,0.04938271604938272,0,0)" xlink:href="#ai"/><use transform="matrix(0.04938271604938272,0,0,0.04938271604938272,11.851851851851853,0)" xlink:href="#aa"/><use transform="matrix(0.04938271604938272,0,0,0.04938271604938272,16.790123456790127,0)" xlink:href="#X"/><use transform="matrix(0.04938271604938272,0,0,0.04938271604938272,22.66666666666667,0)" xlink:href="#S"/><use transform="matrix(0.04938271604938272,0,0,0.04938271604938272,26.567901234567902,0)" xlink:href="#ag"/><use transform="matrix(0.04938271604938272,0,0,0.04938271604938272,36.44444444444445,0)" xlink:href="#aj"/></g><g id="j"><use transform="matrix(0.04938271604938272,0,0,0.04938271604938272,0,0)" xlink:href="#Y"/><use transform="matrix(0.04938271604938272,0,0,0.04938271604938272,9.876543209876544,0)" xlink:href="#ah"/><use transform="matrix(0.04938271604938272,0,0,0.04938271604938272,24.641975308641978,0)" xlink:href="#Z"/><use transform="matrix(0.04938271604938272,0,0,0.04938271604938272,34.51851851851852,0)" xlink:href="#S"/><use transform="matrix(0.04938271604938272,0,0,0.04938271604938272,38.41975308641975,0)" xlink:href="#ae"/><use transform="matrix(0.04938271604938272,0,0,0.04938271604938272,42.32098765432099,0)" xlink:href="#U"/></g><path fill="#333" d="M206 0h-36l-40-164L89 0H53L-1-190h32L70-26l43-164h34l41 164 42-164h31" id="ak"/><path fill="#333" d="M100-194c62-1 85 37 85 99 1 63-27 99-86 99S16-35 15-95c0-66 28-99 85-99zM99-20c44 1 53-31 53-75 0-43-8-75-51-75s-53 32-53 75 10 74 51 75" id="al"/><g id="k"><use transform="matrix(0.04938271604938272,0,0,0.04938271604938272,0,0)" xlink:href="#ad"/><use transform="matrix(0.04938271604938272,0,0,0.04938271604938272,9.876543209876544,0)" xlink:href="#Z"/><use transform="matrix(0.04938271604938272,0,0,0.04938271604938272,19.75308641975309,0)" xlink:href="#af"/><use transform="matrix(0.04938271604938272,0,0,0.04938271604938272,28.641975308641978,0)" xlink:href="#af"/><use transform="matrix(0.04938271604938272,0,0,0.04938271604938272,37.53086419753087,0)" xlink:href="#ak"/><use transform="matrix(0.04938271604938272,0,0,0.04938271604938272,50.320987654320994,0)" xlink:href="#al"/><use transform="matrix(0.04938271604938272,0,0,0.04938271604938272,60.19753086419754,0)" xlink:href="#X"/><use transform="matrix(0.04938271604938272,0,0,0.04938271604938272,66.07407407407408,0)" xlink:href="#T"/><use transform="matrix(0.04938271604938272,0,0,0.04938271604938272,75.95061728395062,0)" xlink:href="#U"/></g><g id="l"><use transform="matrix(0.04938271604938272,0,0,0.04938271604938272,0,0)" xlink:href="#af"/><use transform="matrix(0.04938271604938272,0,0,0.04938271604938272,8.88888888888889,0)" xlink:href="#Z"/><use transform="matrix(0.04938271604938272,0,0,0.04938271604938272,18.765432098765434,0)" xlink:href="#ae"/><use transform="matrix(0.04938271604938272,0,0,0.04938271604938272,22.666666666666668,0)" xlink:href="#aa"/><use transform="matrix(0.04938271604938272,0,0,0.04938271604938272,27.60493827160494,0)" xlink:href="#U"/></g><g id="m"><use transform="matrix(0.04938271604938272,0,0,0.04938271604938272,0,0)" xlink:href="#ai"/><use transform="matrix(0.04938271604938272,0,0,0.04938271604938272,11.851851851851853,0)" xlink:href="#aa"/><use transform="matrix(0.04938271604938272,0,0,0.04938271604938272,16.790123456790127,0)" xlink:href="#S"/><use transform="matrix(0.04938271604938272,0,0,0.04938271604938272,20.69135802469136,0)" xlink:href="#ag"/><use transform="matrix(0.04938271604938272,0,0,0.04938271604938272,30.567901234567906,0)" xlink:href="#aj"/></g><path fill="#a9afb8" d="M186 0v-106H76V0H24v-248h52v99h110v-99h50V0h-50" id="am"/><path fill="#a9afb8" d="M25-224v-37h50v37H25zM25 0v-190h50V0H25" id="an"/><path fill="#a9afb8" d="M128 0H69L1-190h53L99-40l48-150h52" id="ao"/><path fill="#a9afb8" d="M185-48c-13 30-37 53-82 52C43 2 14-33 14-96s30-98 90-98c62 0 83 45 84 108H66c0 31 8 55 39 56 18 0 30-7 34-22zm-45-69c5-46-57-63-70-21-2 6-4 13-4 21h74" id="ap"/><g id="n"><use transform="matrix(0.0728395061728395,0,0,0.0728395061728395,0,0)" xlink:href="#am"/><use transform="matrix(0.0728395061728395,0,0,0.0728395061728395,18.86543209876543,0)" xlink:href="#an"/><use transform="matrix(0.0728395061728395,0,0,0.0728395061728395,26.14938271604938,0)" xlink:href="#ao"/><use transform="matrix(0.0728395061728395,0,0,0.0728395061728395,40.717283950617286,0)" xlink:href="#ap"/></g><path fill="#a9afb8" d="M175 0L67-191c6 58 2 128 3 191H24v-248h59L193-55c-6-58-2-129-3-193h46V0h-61" id="aq"/><path fill="#a9afb8" d="M144 0l-44-69L55 0H2l70-98-66-92h53l41 62 40-62h54l-67 91 71 99h-54" id="ar"/><path fill="#a9afb8" d="M85 4C-2 5 27-109 22-190h50c7 57-23 150 33 157 60-5 35-97 40-157h50l1 190h-47c-2-12 1-28-3-38-12 25-28 42-61 42" id="as"/><path fill="#a9afb8" d="M137-138c1-29-70-34-71-4 15 46 118 7 119 86 1 83-164 76-172 9l43-7c4 19 20 25 44 25 33 8 57-30 24-41C81-84 22-81 20-136c-2-80 154-74 161-7" id="at"/><g id="o"><use transform="matrix(0.0728395061728395,0,0,0.0728395061728395,0,0)" xlink:href="#aq"/><use transform="matrix(0.0728395061728395,0,0,0.0728395061728395,18.86543209876543,0)" xlink:href="#ap"/><use transform="matrix(0.0728395061728395,0,0,0.0728395061728395,33.43333333333333,0)" xlink:href="#ar"/><use transform="matrix(0.0728395061728395,0,0,0.0728395061728395,48.00123456790123,0)" xlink:href="#as"/><use transform="matrix(0.0728395061728395,0,0,0.0728395061728395,63.95308641975308,0)" xlink:href="#at"/></g><path fill="#a9afb8" d="M205 0l-28-72H64L36 0H1l101-248h38L239 0h-34zm-38-99l-47-123c-12 45-31 82-46 123h93" id="au"/><path fill="#a9afb8" d="M115-194c55 1 70 41 70 98S169 2 115 4C84 4 66-9 55-30l1 105H24l-1-265h31l2 30c10-21 28-34 59-34zm-8 174c40 0 45-34 45-75s-6-73-45-74c-42 0-51 32-51 76 0 43 10 73 51 73" id="av"/><path fill="#a9afb8" d="M114-163C36-179 61-72 57 0H25l-1-190h30c1 12-1 29 2 39 6-27 23-49 58-41v29" id="aw"/><path fill="#a9afb8" d="M24-231v-30h32v30H24zM24 0v-190h32V0H24" id="ax"/><path fill="#a9afb8" d="M24 0v-261h32V0H24" id="ay"/><g id="q"><use transform="matrix(0.04248971193415638,0,0,0.04248971193415638,0,0)" xlink:href="#au"/><use transform="matrix(0.04248971193415638,0,0,0.04248971193415638,10.19753086419753,0)" xlink:href="#av"/><use transform="matrix(0.04248971193415638,0,0,0.04248971193415638,18.695473251028805,0)" xlink:href="#aw"/><use transform="matrix(0.04248971193415638,0,0,0.04248971193415638,23.751748971193415,0)" xlink:href="#ax"/><use transform="matrix(0.04248971193415638,0,0,0.04248971193415638,27.10843621399177,0)" xlink:href="#ay"/></g><path fill="#a9afb8" d="M101-251c82-7 93 87 43 132L82-64C71-53 59-42 53-27h129V0H18c2-99 128-94 128-182 0-28-16-43-45-43s-46 15-49 41l-32-3c6-41 34-60 81-64" id="az"/><path fill="#a9afb8" d="M110-160c48 1 74 30 74 79 0 53-28 85-80 85-65 0-83-55-86-122-5-90 50-162 133-122 14 7 22 21 27 39l-31 6c-5-40-67-38-82-6-9 19-15 44-15 74 11-20 30-34 60-33zm-7 138c34 0 49-23 49-58s-16-56-50-56c-29 0-50 16-49 49 1 36 15 65 50 65" id="aA"/><path fill="#a9afb8" d="M68-38c1 34 0 65-14 84H32c9-13 17-26 17-46H33v-38h35" id="aB"/><g id="r"><use transform="matrix(0.04248971193415638,0,0,0.04248971193415638,0,0)" xlink:href="#az"/><use transform="matrix(0.04248971193415638,0,0,0.04248971193415638,8.497942386831275,0)" xlink:href="#aA"/><use transform="matrix(0.04248971193415638,0,0,0.04248971193415638,16.99588477366255,0)" xlink:href="#aB"/></g><path fill="#a9afb8" d="M101-251c68 0 85 55 85 127S166 4 100 4C33 4 14-52 14-124c0-73 17-127 87-127zm-1 229c47 0 54-49 54-102s-4-102-53-102c-51 0-55 48-55 102 0 53 5 102 54 102" id="aC"/><path fill="#a9afb8" d="M126-127c33 6 58 20 58 59 0 88-139 92-164 29-3-8-5-16-6-25l32-3c6 27 21 44 54 44 32 0 52-15 52-46 0-38-36-46-79-43v-28c39 1 72-4 72-42 0-27-17-43-46-43-28 0-47 15-49 41l-32-3c6-42 35-63 81-64 48-1 79 21 79 65 0 36-21 52-52 59" id="aD"/><g id="s"><use transform="matrix(0.04248971193415638,0,0,0.04248971193415638,0,0)" xlink:href="#az"/><use transform="matrix(0.04248971193415638,0,0,0.04248971193415638,8.497942386831275,0)" xlink:href="#aC"/><use transform="matrix(0.04248971193415638,0,0,0.04248971193415638,16.99588477366255,0)" xlink:href="#az"/><use transform="matrix(0.04248971193415638,0,0,0.04248971193415638,25.493827160493822,0)" xlink:href="#aD"/></g><path fill="#333" d="M67-125c0 53 21 87 73 88 37 1 54-22 65-47l45 17C233-25 199 4 140 4 58 4 20-42 15-125 8-235 124-281 211-232c18 10 29 29 36 50l-46 12c-8-25-30-41-62-41-52 0-71 34-72 86" id="aE"/><path fill="#333" d="M114-157C55-157 80-60 75 0H25v-261h50l-1 109c12-26 28-41 61-42 86-1 58 113 63 194h-50c-7-57 23-157-34-157" id="aF"/><path fill="#333" d="M133-34C117-15 103 5 69 4 32 3 11-16 11-54c-1-60 55-63 116-61 1-26-3-47-28-47-18 1-26 9-28 27l-52-2c7-38 36-58 82-57s74 22 75 68l1 82c-1 14 12 18 25 15v27c-30 8-71 5-69-32zm-48 3c29 0 43-24 42-57-32 0-66-3-65 30 0 17 8 27 23 27" id="aG"/><path fill="#333" d="M115-3C79 11 28 4 28-45v-112H4v-33h27l15-45h31v45h36v33H77v99c-1 23 16 31 38 25v30" id="aH"/><path fill="#333" d="M240-174c0 40-23 61-54 70L253 0h-59l-57-94H76V0H24v-248c93 4 217-23 216 74zM76-134c48-2 112 12 112-38 0-48-66-32-112-35v73" id="aI"/><path fill="#333" d="M110-194c64 0 96 36 96 99 0 64-35 99-97 99-61 0-95-36-95-99 0-62 34-99 96-99zm-1 164c35 0 45-28 45-65 0-40-10-65-43-65-34 0-45 26-45 65 0 36 10 65 43 65" id="aJ"/><path fill="#333" d="M220-157c-53 9-28 100-34 157h-49v-107c1-27-5-49-29-50C55-147 81-57 75 0H25l-1-190h47c2 12-1 28 3 38 10-53 101-56 108 0 13-22 24-43 59-42 82 1 51 116 57 194h-49v-107c-1-25-5-48-29-50" id="aK"/><g id="t"><use transform="matrix(0.04938271604938272,0,0,0.04938271604938272,0,0)" xlink:href="#aE"/><use transform="matrix(0.04938271604938272,0,0,0.04938271604938272,12.790123456790125,0)" xlink:href="#aF"/><use transform="matrix(0.04938271604938272,0,0,0.04938271604938272,23.60493827160494,0)" xlink:href="#aG"/><use transform="matrix(0.04938271604938272,0,0,0.04938271604938272,33.48148148148148,0)" xlink:href="#aH"/><use transform="matrix(0.04938271604938272,0,0,0.04938271604938272,39.358024691358025,0)" xlink:href="#aI"/><use transform="matrix(0.04938271604938272,0,0,0.04938271604938272,52.14814814814815,0)" xlink:href="#aJ"/><use transform="matrix(0.04938271604938272,0,0,0.04938271604938272,62.96296296296297,0)" xlink:href="#aJ"/><use transform="matrix(0.04938271604938272,0,0,0.04938271604938272,73.77777777777779,0)" xlink:href="#aK"/></g><path fill="#333" d="M24-248c93 1 206-16 204 79-1 75-69 88-152 82V0H24v-248zm52 121c47 0 100 7 100-41 0-47-54-39-100-39v80" id="aL"/><g id="u"><use transform="matrix(0.04938271604938272,0,0,0.04938271604938272,0,0)" xlink:href="#aL"/><use transform="matrix(0.04938271604938272,0,0,0.04938271604938272,11.851851851851853,0)" xlink:href="#aJ"/><use transform="matrix(0.04938271604938272,0,0,0.04938271604938272,22.666666666666668,0)" xlink:href="#P"/><use transform="matrix(0.04938271604938272,0,0,0.04938271604938272,32.543209876543216,0)" xlink:href="#aH"/></g><g id="v"><use transform="matrix(0.04938271604938272,0,0,0.04938271604938272,0,0)" xlink:href="#W"/><use transform="matrix(0.04938271604938272,0,0,0.04938271604938272,8.88888888888889,0)" xlink:href="#al"/><use transform="matrix(0.04938271604938272,0,0,0.04938271604938272,18.765432098765434,0)" xlink:href="#ag"/><use transform="matrix(0.04938271604938272,0,0,0.04938271604938272,28.641975308641978,0)" xlink:href="#aa"/><use transform="matrix(0.04938271604938272,0,0,0.04938271604938272,33.580246913580254,0)" xlink:href="#Y"/><use transform="matrix(0.04938271604938272,0,0,0.04938271604938272,43.4567901234568,0)" xlink:href="#ag"/><use transform="matrix(0.04938271604938272,0,0,0.04938271604938272,53.333333333333336,0)" xlink:href="#aa"/><use transform="matrix(0.04938271604938272,0,0,0.04938271604938272,58.27160493827161,0)" xlink:href="#U"/></g><g id="w"><use transform="matrix(0.04938271604938272,0,0,0.04938271604938272,0,0)" xlink:href="#aa"/><use transform="matrix(0.04938271604938272,0,0,0.04938271604938272,4.938271604938272,0)" xlink:href="#S"/><use transform="matrix(0.04938271604938272,0,0,0.04938271604938272,8.839506172839506,0)" xlink:href="#aa"/><use transform="matrix(0.04938271604938272,0,0,0.04938271604938272,13.777777777777779,0)" xlink:href="#ae"/><use transform="matrix(0.04938271604938272,0,0,0.04938271604938272,17.679012345679013,0)" xlink:href="#Y"/><use transform="matrix(0.04938271604938272,0,0,0.04938271604938272,27.555555555555557,0)" xlink:href="#U"/></g><path fill="#333" d="M135-194c87-1 58 113 63 194h-50c-7-57 23-157-34-157-59 0-34 97-39 157H25l-1-190h47c2 12-1 28 3 38 12-26 28-41 61-42" id="aM"/><g id="x"><use transform="matrix(0.04938271604938272,0,0,0.04938271604938272,0,0)" xlink:href="#aE"/><use transform="matrix(0.04938271604938272,0,0,0.04938271604938272,12.790123456790125,0)" xlink:href="#aJ"/><use transform="matrix(0.04938271604938272,0,0,0.04938271604938272,23.60493827160494,0)" xlink:href="#aK"/><use transform="matrix(0.04938271604938272,0,0,0.04938271604938272,39.40740740740741,0)" xlink:href="#aK"/><use transform="matrix(0.04938271604938272,0,0,0.04938271604938272,55.20987654320988,0)" xlink:href="#Q"/><use transform="matrix(0.04938271604938272,0,0,0.04938271604938272,65.08641975308643,0)" xlink:href="#aM"/><use transform="matrix(0.04938271604938272,0,0,0.04938271604938272,75.90123456790124,0)" xlink:href="#aH"/></g><path fill="#333" d="M24 0v-248h52v208h133V0H24" id="aN"/><path fill="#333" d="M25-224v-37h50v37H25zM25 0v-190h50V0H25" id="aO"/><path fill="#333" d="M147 0L96-86 75-71V0H25v-261h50v150l67-79h53l-66 74L201 0h-54" id="aP"/><g id="y"><use transform="matrix(0.04938271604938272,0,0,0.04938271604938272,0,0)" xlink:href="#aL"/><use transform="matrix(0.04938271604938272,0,0,0.04938271604938272,11.851851851851853,0)" xlink:href="#aJ"/><use transform="matrix(0.04938271604938272,0,0,0.04938271604938272,22.666666666666668,0)" xlink:href="#P"/><use transform="matrix(0.04938271604938272,0,0,0.04938271604938272,32.543209876543216,0)" xlink:href="#aH"/><use transform="matrix(0.04938271604938272,0,0,0.04938271604938272,38.41975308641976,0)" xlink:href="#aN"/><use transform="matrix(0.04938271604938272,0,0,0.04938271604938272,49.23456790123458,0)" xlink:href="#aO"/><use transform="matrix(0.04938271604938272,0,0,0.04938271604938272,54.17283950617284,0)" xlink:href="#aP"/><use transform="matrix(0.04938271604938272,0,0,0.04938271604938272,64.0493827160494,0)" xlink:href="#Q"/></g><path fill="#333" d="M230 0l2-204L168 0h-37L68-204 70 0H24v-248h70l56 185 57-185h69V0h-46" id="aQ"/><path fill="#333" d="M195-6C206 82 75 100 31 46c-4-6-6-13-8-21l49-6c3 16 16 24 34 25 40 0 42-37 40-79-11 22-30 35-61 35-53 0-70-43-70-97 0-56 18-96 73-97 30 0 46 14 59 34l2-30h47zm-90-29c32 0 41-27 41-63 0-35-9-62-40-62-32 0-39 29-40 63 0 36 9 62 39 62" id="aR"/><g id="z"><use transform="matrix(0.04938271604938272,0,0,0.04938271604938272,0,0)" xlink:href="#aQ"/><use transform="matrix(0.04938271604938272,0,0,0.04938271604938272,14.765432098765434,0)" xlink:href="#Q"/><use transform="matrix(0.04938271604938272,0,0,0.04938271604938272,24.641975308641978,0)" xlink:href="#P"/><use transform="matrix(0.04938271604938272,0,0,0.04938271604938272,34.51851851851852,0)" xlink:href="#P"/><use transform="matrix(0.04938271604938272,0,0,0.04938271604938272,44.39506172839506,0)" xlink:href="#aG"/><use transform="matrix(0.04938271604938272,0,0,0.04938271604938272,54.27160493827161,0)" xlink:href="#aR"/><use transform="matrix(0.04938271604938272,0,0,0.04938271604938272,65.08641975308642,0)" xlink:href="#Q"/></g><g id="A"><use transform="matrix(0.04938271604938272,0,0,0.04938271604938272,0,0)" xlink:href="#ah"/><use transform="matrix(0.04938271604938272,0,0,0.04938271604938272,14.765432098765434,0)" xlink:href="#Y"/><use transform="matrix(0.04938271604938272,0,0,0.04938271604938272,24.641975308641978,0)" xlink:href="#af"/><use transform="matrix(0.04938271604938272,0,0,0.04938271604938272,33.53086419753087,0)" xlink:href="#af"/><use transform="matrix(0.04938271604938272,0,0,0.04938271604938272,42.41975308641976,0)" xlink:href="#Z"/><use transform="matrix(0.04938271604938272,0,0,0.04938271604938272,52.2962962962963,0)" xlink:href="#aj"/><use transform="matrix(0.04938271604938272,0,0,0.04938271604938272,62.17283950617284,0)" xlink:href="#Y"/><use transform="matrix(0.04938271604938272,0,0,0.04938271604938272,72.0493827160494,0)" xlink:href="#U"/></g><g id="B"><use transform="matrix(0.04938271604938272,0,0,0.04938271604938272,0,0)" xlink:href="#X"/><use transform="matrix(0.04938271604938272,0,0,0.04938271604938272,5.8765432098765435,0)" xlink:href="#Y"/><use transform="matrix(0.04938271604938272,0,0,0.04938271604938272,15.753086419753087,0)" xlink:href="#Z"/><use transform="matrix(0.04938271604938272,0,0,0.04938271604938272,25.629629629629633,0)" xlink:href="#T"/><use transform="matrix(0.04938271604938272,0,0,0.04938271604938272,35.50617283950618,0)" xlink:href="#U"/></g><path fill="#333" d="M160-131c35 5 61 23 61 61C221 17 115-2 30 0v-248c76 3 177-17 177 60 0 33-19 50-47 57zm-97-11c50-1 110 9 110-42 0-47-63-36-110-37v79zm0 115c55-2 124 14 124-45 0-56-70-42-124-44v89" id="aS"/><g id="C"><use transform="matrix(0.04938271604938272,0,0,0.04938271604938272,0,0)" xlink:href="#aS"/><use transform="matrix(0.04938271604938272,0,0,0.04938271604938272,11.851851851851853,0)" xlink:href="#al"/><use transform="matrix(0.04938271604938272,0,0,0.04938271604938272,21.7283950617284,0)" xlink:href="#al"/><use transform="matrix(0.04938271604938272,0,0,0.04938271604938272,31.60493827160494,0)" xlink:href="#ae"/><use transform="matrix(0.04938271604938272,0,0,0.04938271604938272,35.50617283950618,0)" xlink:href="#Y"/><use transform="matrix(0.04938271604938272,0,0,0.04938271604938272,45.38271604938272,0)" xlink:href="#Z"/><use transform="matrix(0.04938271604938272,0,0,0.04938271604938272,55.25925925925927,0)" xlink:href="#ag"/></g><path fill="#333" d="M76-208v77h127v40H76V0H24v-248h183v40H76" id="aT"/><path fill="#333" d="M25 0v-261h50V0H25" id="aU"/><path fill="#333" d="M231 0h-52l-39-155L100 0H48L-1-190h46L77-45c9-52 24-97 36-145h53l37 145 32-145h46" id="aV"/><g id="D"><use transform="matrix(0.04938271604938272,0,0,0.04938271604938272,0,0)" xlink:href="#aT"/><use transform="matrix(0.04938271604938272,0,0,0.04938271604938272,10.814814814814815,0)" xlink:href="#aJ"/><use transform="matrix(0.04938271604938272,0,0,0.04938271604938272,21.62962962962963,0)" xlink:href="#aU"/><use transform="matrix(0.04938271604938272,0,0,0.04938271604938272,26.567901234567902,0)" xlink:href="#aU"/><use transform="matrix(0.04938271604938272,0,0,0.04938271604938272,31.506172839506174,0)" xlink:href="#aJ"/><use transform="matrix(0.04938271604938272,0,0,0.04938271604938272,42.32098765432099,0)" xlink:href="#aV"/></g><path fill="#333" d="M63-220v92h138v28H63V0H30v-248h175v28H63" id="aW"/><g id="E"><use transform="matrix(0.04938271604938272,0,0,0.04938271604938272,0,0)" xlink:href="#aW"/><use transform="matrix(0.04938271604938272,0,0,0.04938271604938272,10.814814814814815,0)" xlink:href="#al"/><use transform="matrix(0.04938271604938272,0,0,0.04938271604938272,20.69135802469136,0)" xlink:href="#ae"/><use transform="matrix(0.04938271604938272,0,0,0.04938271604938272,24.592592592592595,0)" xlink:href="#ae"/><use transform="matrix(0.04938271604938272,0,0,0.04938271604938272,28.49382716049383,0)" xlink:href="#al"/><use transform="matrix(0.04938271604938272,0,0,0.04938271604938272,38.370370370370374,0)" xlink:href="#ak"/><use transform="matrix(0.04938271604938272,0,0,0.04938271604938272,51.1604938271605,0)" xlink:href="#Y"/><use transform="matrix(0.04938271604938272,0,0,0.04938271604938272,61.037037037037045,0)" xlink:href="#X"/><use transform="matrix(0.04938271604938272,0,0,0.04938271604938272,66.91358024691358,0)" xlink:href="#U"/></g><path fill="#333" d="M232-93c-1 65-40 97-104 97C67 4 28-28 28-90v-158h33c8 89-33 224 67 224 102 0 64-133 71-224h33v155" id="aX"/><g id="F"><use transform="matrix(0.04938271604938272,0,0,0.04938271604938272,0,0)" xlink:href="#aX"/><use transform="matrix(0.04938271604938272,0,0,0.04938271604938272,12.790123456790125,0)" xlink:href="#af"/><use transform="matrix(0.04938271604938272,0,0,0.04938271604938272,21.679012345679013,0)" xlink:href="#Y"/><use transform="matrix(0.04938271604938272,0,0,0.04938271604938272,31.555555555555557,0)" xlink:href="#X"/></g><g id="G"><use transform="matrix(0.04938271604938272,0,0,0.04938271604938272,0,0)" xlink:href="#aW"/><use transform="matrix(0.04938271604938272,0,0,0.04938271604938272,10.814814814814815,0)" xlink:href="#al"/><use transform="matrix(0.04938271604938272,0,0,0.04938271604938272,20.69135802469136,0)" xlink:href="#ae"/><use transform="matrix(0.04938271604938272,0,0,0.04938271604938272,24.592592592592595,0)" xlink:href="#ae"/><use transform="matrix(0.04938271604938272,0,0,0.04938271604938272,28.49382716049383,0)" xlink:href="#al"/><use transform="matrix(0.04938271604938272,0,0,0.04938271604938272,38.370370370370374,0)" xlink:href="#ak"/><use transform="matrix(0.04938271604938272,0,0,0.04938271604938272,51.1604938271605,0)" xlink:href="#Y"/><use transform="matrix(0.04938271604938272,0,0,0.04938271604938272,61.037037037037045,0)" xlink:href="#Y"/><use transform="matrix(0.04938271604938272,0,0,0.04938271604938272,70.9135802469136,0)" xlink:href="#U"/></g><path fill="#3a414a" d="M63-220v92h138v28H63V0H30v-248h175v28H63" id="aY"/><path fill="#3a414a" d="M100-194c62-1 85 37 85 99 1 63-27 99-86 99S16-35 15-95c0-66 28-99 85-99zM99-20c44 1 53-31 53-75 0-43-8-75-51-75s-53 32-53 75 10 74 51 75" id="aZ"/><path fill="#3a414a" d="M114-163C36-179 61-72 57 0H25l-1-190h30c1 12-1 29 2 39 6-27 23-49 58-41v29" id="ba"/><path fill="#3a414a" d="M100-194c63 0 86 42 84 106H49c0 40 14 67 53 68 26 1 43-12 49-29l28 8c-11 28-37 45-77 45C44 4 14-33 15-96c1-61 26-98 85-98zm52 81c6-60-76-77-97-28-3 7-6 17-6 28h103" id="bb"/><path fill="#3a414a" d="M24-231v-30h32v30H24zM24 0v-190h32V0H24" id="bc"/><path fill="#3a414a" d="M177-190C167-65 218 103 67 71c-23-6-38-20-44-43l32-5c15 47 100 32 89-28v-30C133-14 115 1 83 1 29 1 15-40 15-95c0-56 16-97 71-98 29-1 48 16 59 35 1-10 0-23 2-32h30zM94-22c36 0 50-32 50-73 0-42-14-75-50-75-39 0-46 34-46 75s6 73 46 73" id="bd"/><path fill="#3a414a" d="M117-194c89-4 53 116 60 194h-32v-121c0-31-8-49-39-48C34-167 62-67 57 0H25l-1-190h30c1 10-1 24 2 32 11-22 29-35 61-36" id="be"/><g id="H"><use transform="matrix(0.06172839506172839,0,0,0.06172839506172839,0,0)" xlink:href="#aY"/><use transform="matrix(0.06172839506172839,0,0,0.06172839506172839,13.518518518518517,0)" xlink:href="#aZ"/><use transform="matrix(0.06172839506172839,0,0,0.06172839506172839,25.864197530864196,0)" xlink:href="#ba"/><use transform="matrix(0.06172839506172839,0,0,0.06172839506172839,33.20987654320987,0)" xlink:href="#bb"/><use transform="matrix(0.06172839506172839,0,0,0.06172839506172839,45.55555555555555,0)" xlink:href="#bc"/><use transform="matrix(0.06172839506172839,0,0,0.06172839506172839,50.432098765432094,0)" xlink:href="#bd"/><use transform="matrix(0.06172839506172839,0,0,0.06172839506172839,62.77777777777777,0)" xlink:href="#be"/></g><path fill="#3a414a" d="M143 0L79-87 56-68V0H24v-261h32v163l83-92h37l-77 82L181 0h-38" id="bf"/><path fill="#3a414a" d="M179-190L93 31C79 59 56 82 12 73V49c39 6 53-20 64-50L1-190h34L92-34l54-156h33" id="bg"/><path fill="#3a414a" d="M135-143c-3-34-86-38-87 0 15 53 115 12 119 90S17 21 10-45l28-5c4 36 97 45 98 0-10-56-113-15-118-90-4-57 82-63 122-42 12 7 21 19 24 35" id="bh"/><g id="I"><use transform="matrix(0.06172839506172839,0,0,0.06172839506172839,0,0)" xlink:href="#bf"/><use transform="matrix(0.06172839506172839,0,0,0.06172839506172839,11.11111111111111,0)" xlink:href="#bb"/><use transform="matrix(0.06172839506172839,0,0,0.06172839506172839,23.45679012345679,0)" xlink:href="#bg"/><use transform="matrix(0.06172839506172839,0,0,0.06172839506172839,34.5679012345679,0)" xlink:href="#bh"/></g><path fill="#3a414a" d="M141-36C126-15 110 5 73 4 37 3 15-17 15-53c-1-64 63-63 125-63 3-35-9-54-41-54-24 1-41 7-42 31l-33-3c5-37 33-52 76-52 45 0 72 20 72 64v82c-1 20 7 32 28 27v20c-31 9-61-2-59-35zM48-53c0 20 12 33 32 33 41-3 63-29 60-74-43 2-92-5-92 41" id="bi"/><path fill="#3a414a" d="M85-194c31 0 48 13 60 33l-1-100h32l1 261h-30c-2-10 0-23-3-31C134-8 116 4 85 4 32 4 16-35 15-94c0-66 23-100 70-100zm9 24c-40 0-46 34-46 75 0 40 6 74 45 74 42 0 51-32 51-76 0-42-9-74-50-73" id="bj"/><g id="J"><use transform="matrix(0.06172839506172839,0,0,0.06172839506172839,0,0)" xlink:href="#bi"/><use transform="matrix(0.06172839506172839,0,0,0.06172839506172839,12.345679012345679,0)" xlink:href="#be"/><use transform="matrix(0.06172839506172839,0,0,0.06172839506172839,24.691358024691358,0)" xlink:href="#bj"/></g><path fill="#3a414a" d="M24-231v-30h32v30H24zM-9 49c24 4 33-6 33-30v-209h32V24c2 40-23 58-65 49V49" id="bk"/><g id="K"><use transform="matrix(0.06172839506172839,0,0,0.06172839506172839,0,0)" xlink:href="#bk"/><use transform="matrix(0.06172839506172839,0,0,0.06172839506172839,4.876543209876543,0)" xlink:href="#aZ"/><use transform="matrix(0.06172839506172839,0,0,0.06172839506172839,17.22222222222222,0)" xlink:href="#bc"/><use transform="matrix(0.06172839506172839,0,0,0.06172839506172839,22.098765432098766,0)" xlink:href="#be"/></g><path fill="#3a414a" d="M59-47c-2 24 18 29 38 22v24C64 9 27 4 27-40v-127H5v-23h24l9-43h21v43h35v23H59v120" id="bl"/><path fill="#3a414a" d="M115-194c53 0 69 39 70 98 0 66-23 100-70 100C84 3 66-7 56-30L54 0H23l1-261h32v101c10-23 28-34 59-34zm-8 174c40 0 45-34 45-75 0-40-5-75-45-74-42 0-51 32-51 76 0 43 10 73 51 73" id="bm"/><path fill="#3a414a" d="M24 0v-261h32V0H24" id="bn"/><g id="L"><use transform="matrix(0.06172839506172839,0,0,0.06172839506172839,0,0)" xlink:href="#bl"/><use transform="matrix(0.06172839506172839,0,0,0.06172839506172839,6.172839506172839,0)" xlink:href="#bi"/><use transform="matrix(0.06172839506172839,0,0,0.06172839506172839,18.51851851851852,0)" xlink:href="#bm"/><use transform="matrix(0.06172839506172839,0,0,0.06172839506172839,30.864197530864196,0)" xlink:href="#bn"/><use transform="matrix(0.06172839506172839,0,0,0.06172839506172839,35.74074074074074,0)" xlink:href="#bb"/><use transform="matrix(0.06172839506172839,0,0,0.06172839506172839,48.08641975308642,0)" xlink:href="#bh"/></g><g id="M"><use transform="matrix(0.06172839506172839,0,0,0.06172839506172839,0,0)" xlink:href="#bi"/><use transform="matrix(0.06172839506172839,0,0,0.06172839506172839,12.345679012345679,0)" xlink:href="#ba"/><use transform="matrix(0.06172839506172839,0,0,0.06172839506172839,19.691358024691358,0)" xlink:href="#bb"/></g><path fill="#3a414a" d="M210-169c-67 3-38 105-44 169h-31v-121c0-29-5-50-35-48C34-165 62-65 56 0H25l-1-190h30c1 10-1 24 2 32 10-44 99-50 107 0 11-21 27-35 58-36 85-2 47 119 55 194h-31v-121c0-29-5-49-35-48" id="bo"/><path fill="#3a414a" d="M115-194c55 1 70 41 70 98S169 2 115 4C84 4 66-9 55-30l1 105H24l-1-265h31l2 30c10-21 28-34 59-34zm-8 174c40 0 45-34 45-75s-6-73-45-74c-42 0-51 32-51 76 0 43 10 73 51 73" id="bp"/><g id="N"><use transform="matrix(0.06172839506172839,0,0,0.06172839506172839,0,0)" xlink:href="#bc"/><use transform="matrix(0.06172839506172839,0,0,0.06172839506172839,4.876543209876543,0)" xlink:href="#bo"/><use transform="matrix(0.06172839506172839,0,0,0.06172839506172839,23.33333333333333,0)" xlink:href="#bp"/><use transform="matrix(0.06172839506172839,0,0,0.06172839506172839,35.679012345679006,0)" xlink:href="#bn"/><use transform="matrix(0.06172839506172839,0,0,0.06172839506172839,40.55555555555555,0)" xlink:href="#bc"/><use transform="matrix(0.06172839506172839,0,0,0.06172839506172839,45.432098765432094,0)" xlink:href="#bb"/><use transform="matrix(0.06172839506172839,0,0,0.06172839506172839,57.77777777777777,0)" xlink:href="#bj"/></g></defs></g></svg>